# xmcd
#
# Track frame offsets: 
#        150
#        17068
#        36534
#        63364
#        76131
#        98295
#        117045
#        134626
#        147448
#        165362
#        183259
#
# Disc length: 2630 seconds
#
# Revision: 0
# Processed by: cddbd v1.5.2PL0 Copyright (c) Steve Scherf et al.
# Submitted via: ExactAudioCopy v1.0b4
#
DISCID=880a440b
DTITLE=Matthew Skoller - Blues Immigrant
DYEAR=2017
DGENRE=Blues
TTITLE0=Big Box Store Blues
TTITLE1=The Devil Ain't Got No Music
TTITLE2=Blues Immigrant
TTITLE3=Only In The Blues
TTITLE4=Tear Collector
TTITLE5=Story Of Greed
TTITLE6=747
TTITLE7=Organ Mouth
TTITLE8=My Get It Done Woman
TTITLE9=Get Down To The Nitty Gritty
TTITLE10=Blue Lights
EXTD=
EXTT0=
EXTT1=
EXTT2=
EXTT3=
EXTT4=
EXTT5=
EXTT6=
EXTT7=
EXTT8=
EXTT9=
EXTT10=
PLAYORDER=
